<svg width="132" height="93" viewBox="0 0 132 93" fill="none" xmlns="http://www.w3.org/2000/svg">
<path d="M71.8375 92.6598V52.5297L49.1847 92.6598H39.9008L17.248 52.5297V92.6598H0.165527V22.0224H18.4858L44.4808 68.0381L70.7234 22.0224H88.9199V92.6598H71.8375Z" fill="#8E64CC"/>
<path d="M71.8375 92.6598V52.5297L49.1847 92.6598H39.9008L17.248 52.5297V92.6598H0.165527V22.0224H18.4858L44.4808 68.0381L70.7234 22.0224H88.9199V92.6598H71.8375Z" fill="url(#paint0_linear)" fill-opacity="0.85"/>
<path d="M131.133 46.8199H95.3593V35.9268L108.852 25.6526C110.42 24.4972 111.699 23.5069 112.689 22.6817C113.762 21.7739 114.629 20.9487 115.289 20.206C115.949 19.3808 116.403 18.5968 116.65 17.8541C116.981 17.1113 117.146 16.2861 117.146 15.3784V15.2546C117.146 13.6041 116.527 12.49 115.289 11.9123C114.133 11.3347 112.978 11.0458 111.823 11.0458C109.76 11.0458 108.192 11.6235 107.119 12.7788C106.129 13.8517 105.427 15.1308 105.015 16.6162L93.9976 12.5313C95.153 9.06528 97.2986 6.17694 100.434 3.86627C103.653 1.5556 107.862 0.400269 113.061 0.400269C118.672 0.400269 123.005 1.72065 126.058 4.36141C129.112 7.00218 130.638 10.3857 130.638 14.5118C130.638 16.6575 130.226 18.5968 129.4 20.3298C128.658 22.0628 127.626 23.672 126.306 25.1574C124.985 26.5603 123.459 27.8807 121.726 29.1186C120.075 30.3564 118.342 31.4705 116.527 32.4608L109.223 36.5457H131.133V46.8199Z" fill="#8E64CC"/>
<path d="M131.133 46.8199H95.3593V35.9268L108.852 25.6526C110.42 24.4972 111.699 23.5069 112.689 22.6817C113.762 21.7739 114.629 20.9487 115.289 20.206C115.949 19.3808 116.403 18.5968 116.65 17.8541C116.981 17.1113 117.146 16.2861 117.146 15.3784V15.2546C117.146 13.6041 116.527 12.49 115.289 11.9123C114.133 11.3347 112.978 11.0458 111.823 11.0458C109.76 11.0458 108.192 11.6235 107.119 12.7788C106.129 13.8517 105.427 15.1308 105.015 16.6162L93.9976 12.5313C95.153 9.06528 97.2986 6.17694 100.434 3.86627C103.653 1.5556 107.862 0.400269 113.061 0.400269C118.672 0.400269 123.005 1.72065 126.058 4.36141C129.112 7.00218 130.638 10.3857 130.638 14.5118C130.638 16.6575 130.226 18.5968 129.4 20.3298C128.658 22.0628 127.626 23.672 126.306 25.1574C124.985 26.5603 123.459 27.8807 121.726 29.1186C120.075 30.3564 118.342 31.4705 116.527 32.4608L109.223 36.5457H131.133V46.8199Z" fill="url(#paint1_linear)" fill-opacity="0.85"/>
<defs>
<linearGradient id="paint0_linear" x1="65.6494" y1="0.400269" x2="65.6494" y2="92.6598" gradientUnits="userSpaceOnUse">
<stop stop-color="white" stop-opacity="0"/>
<stop offset="1" stop-color="white"/>
</linearGradient>
<linearGradient id="paint1_linear" x1="65.6494" y1="0.400269" x2="65.6494" y2="92.6598" gradientUnits="userSpaceOnUse">
<stop stop-color="white" stop-opacity="0"/>
<stop offset="1" stop-color="white"/>
</linearGradient>
</defs>
</svg>
